<?xml version="1.0" standalone="no"?>
<!DOCTYPE svg PUBLIC "-//W3C//DTD SVG 20010904//EN"
 "http://www.w3.org/TR/2001/REC-SVG-20010904/DTD/svg10.dtd">
<svg version="1.0" xmlns="http://www.w3.org/2000/svg"
 width="512.000000pt" height="512.000000pt" viewBox="0 0 512.000000 512.000000"
 preserveAspectRatio="xMidYMid meet">

<g transform="translate(0.000000,512.000000) scale(0.100000,-0.100000)"
fill="#000000" stroke="none">
<path d="M859 5102 c-179 -47 -309 -191 -372 -411 l-22 -76 0 -2040 c0 -1949
1 -2043 18 -2105 31 -109 84 -197 167 -281 81 -81 147 -123 250 -161 l65 -23
1756 -3 1756 -2 54 28 c34 17 65 44 84 71 27 39 30 50 30 125 0 73 -3 87 -28
124 -16 25 -48 53 -77 70 l-50 27 0 180 0 180 50 27 c62 35 98 87 110 164 13
80 13 4017 0 4063 -18 65 131 60 -1885 60 -1707 0 -1845 -1 -1906 -17z m301
-1992 l0 -1860 -50 0 -50 0 0 1070 0 1071 -25 24 c-13 14 -36 25 -50 25 -14 0
-37 -11 -50 -25 l-25 -24 0 -1085 0 -1084 -37 -12 c-61 -20 -139 -68 -198
-122 l-55 -50 0 1782 c0 1942 -3 1836 55 1949 45 89 126 159 213 186 l22 6 0
-636 0 -636 25 -24 c13 -14 36 -25 50 -25 14 0 37 11 50 25 l25 24 0 641 0
640 50 0 50 0 0 -1860z m3340 -6 c0 -1698 -1 -1866 -16 -1860 -9 3 -726 6
-1595 6 l-1579 0 0 1860 0 1860 1595 0 1595 0 0 -1866z m-22 -2024 c30 -28 30
-82 0 -110 -22 -20 -29 -20 -1070 -20 l-1049 0 -24 -25 c-14 -13 -25 -36 -25
-50 0 -14 11 -37 25 -50 l24 -25 991 0 990 0 0 -175 0 -175 -1642 0 -1642 0
-43 21 c-66 32 -88 70 -88 154 0 84 22 122 88 154 42 20 57 21 546 21 l502 0
24 25 c32 31 32 69 0 101 l-25 25 -527 -3 -528 -3 -46 -23 c-68 -34 -121 -83
-154 -143 -28 -50 -30 -62 -30 -154 0 -92 2 -104 30 -154 33 -60 86 -109 154
-143 l46 -23 1727 -5 c1623 -5 1729 -6 1748 -22 28 -24 27 -81 -2 -108 -22
-20 -25 -20 -1724 -20 -1115 0 -1720 4 -1755 10 -120 23 -242 106 -309 210
-94 147 -94 363 0 510 40 62 119 134 182 166 109 55 15 53 1869 53 1713 1
1715 1 1737 -19z"/>
<path d="M1768 4711 c-152 -49 -282 -189 -317 -342 -13 -57 -13 -162 0 -219
37 -161 183 -311 343 -351 l46 -11 -6 -67 c-9 -91 16 -150 80 -189 33 -20 44
-32 41 -47 -3 -11 -28 -215 -56 -453 -48 -405 -50 -434 -35 -457 31 -47 104
-42 126 7 6 13 22 127 38 253 l27 230 31 -55 c189 -335 600 -532 969 -466 144
25 164 33 182 70 14 30 14 36 -1 64 -21 41 -51 48 -130 28 -203 -51 -431 -17
-608 90 -84 51 -198 162 -255 247 -77 115 -132 287 -133 415 l0 42 800 0 800
0 0 -37 c0 -61 -19 -163 -46 -243 -36 -107 -96 -202 -186 -297 -87 -90 -95
-117 -53 -158 43 -44 76 -35 153 43 70 70 117 132 163 216 l27 49 6 -39 c3
-22 18 -129 32 -239 14 -113 32 -210 40 -222 29 -45 103 -39 125 10 8 19 -2
121 -45 453 -31 236 -58 438 -60 449 -4 15 6 27 38 46 64 39 91 100 82 189
l-6 68 48 12 c157 39 304 191 341 351 55 238 -88 488 -320 560 -84 26 -210 26
-291 -2 -100 -33 -195 -105 -248 -188 l-16 -23 -105 51 c-103 50 -242 93 -349
106 -48 6 -59 4 -83 -15 -20 -16 -27 -30 -27 -55 0 -51 27 -70 121 -84 104
-16 236 -62 321 -112 l67 -39 -6 -55 c-21 -205 123 -418 331 -490 l61 -21 9
-52 c14 -83 16 -82 -215 -82 -110 0 -199 1 -199 3 0 1 -9 54 -20 117 -17 98
-23 118 -45 138 -32 27 -55 28 -89 1 -31 -24 -33 -51 -12 -176 l13 -83 -137 0
-138 0 -4 116 c-3 112 -4 117 -31 140 -35 30 -59 30 -94 0 -27 -23 -28 -28
-31 -140 l-4 -116 -138 0 -137 0 13 83 c21 125 19 152 -12 176 -34 27 -57 26
-89 -1 -22 -20 -28 -40 -45 -138 -11 -63 -20 -116 -20 -117 0 -2 -89 -3 -199
-3 -231 0 -229 -1 -215 82 l9 52 71 26 c85 32 148 74 203 137 80 90 130 236
118 348 l-5 54 47 31 c51 32 146 73 223 97 82 24 100 107 32 143 -33 18 -118
-6 -254 -72 l-104 -50 -16 23 c-53 83 -148 155 -248 188 -80 27 -212 28 -294
2z m262 -150 c78 -30 134 -81 172 -159 29 -59 33 -76 32 -147 0 -61 -5 -91
-23 -126 -57 -118 -168 -193 -290 -193 -180 -1 -318 127 -329 304 -7 136 58
248 180 309 52 26 73 31 134 31 49 0 91 -7 124 -19z m2018 -12 c122 -61 187
-173 180 -309 -6 -94 -37 -159 -108 -223 -162 -146 -413 -91 -511 112 -18 35
-23 65 -23 126 -1 71 3 88 32 147 58 118 155 177 293 178 65 0 84 -4 137 -31z"/>
<path d="M2392 3307 c-88 -94 104 -207 269 -158 70 20 119 64 119 107 0 68
-61 94 -128 52 -21 -13 -51 -21 -77 -21 -26 0 -56 8 -77 21 -45 28 -79 28
-106 -1z"/>
<path d="M3060 3310 c-70 -70 37 -172 180 -173 70 -1 145 26 187 65 31 29 30
78 0 106 -29 28 -60 28 -105 0 -21 -13 -51 -21 -77 -21 -26 0 -56 8 -77 21
-44 27 -82 28 -108 2z"/>
<path d="M2766 2969 c-20 -16 -26 -29 -26 -59 0 -61 21 -70 170 -70 149 0 170
9 170 70 0 30 -6 43 -26 59 -24 19 -40 21 -144 21 -104 0 -120 -2 -144 -21z"/>
<path d="M1683 2280 c-58 -35 -63 -57 -63 -280 0 -223 5 -245 63 -280 31 -19
59 -20 1225 -20 1317 0 1231 -4 1272 63 18 29 20 51 20 237 0 186 -2 208 -20
237 -41 67 45 63 -1272 63 -1166 0 -1194 -1 -1225 -20z m2367 -280 l0 -150
-1140 0 -1140 0 0 150 0 150 1140 0 1140 0 0 -150z"/>
<path d="M2262 1530 c-14 -14 -22 -33 -22 -55 0 -22 8 -41 22 -55 21 -20 32
-20 648 -20 616 0 627 0 648 20 14 14 22 33 22 55 0 22 -8 41 -22 55 -21 20
-32 20 -648 20 -616 0 -627 0 -648 -20z"/>
</g>
</svg>
