<?xml version="1.0" encoding="UTF-8" standalone="no"?>
<svg
   xmlns:dc="http://purl.org/dc/elements/1.1/"
   xmlns:cc="http://creativecommons.org/ns#"
   xmlns:rdf="http://www.w3.org/1999/02/22-rdf-syntax-ns#"
   xmlns:svg="http://www.w3.org/2000/svg"
   xmlns="http://www.w3.org/2000/svg"
   xmlns:sodipodi="http://sodipodi.sourceforge.net/DTD/sodipodi-0.dtd"
   xmlns:inkscape="http://www.inkscape.org/namespaces/inkscape"
   version="1.1"
   id="Слой_1"
   x="0px"
   y="0px"
   viewBox="0 0 320 320"
   xml:space="preserve"
   sodipodi:docname="logo-icon-v2.2.svg"
   inkscape:version="1.0.1 (3bc2e813f5, 2020-09-07)"
   width="320"
   height="320"><path
   id="path1420"
   style="fill:none;stroke:#b67f5f;stroke-width:12.6759;stroke-linecap:round;stroke-linejoin:round;stroke-miterlimit:4;stroke-dasharray:none;stroke-opacity:1;paint-order:stroke fill markers"
   d="m 141.89451,6.0521365 c 10.37377,15.4583305 24.63585,39.2662855 24.76502,53.4890345 l 0.20319,22.372826" /><path
   style="fill:none;stroke:#ffaa5f;stroke-width:24;stroke-linecap:round;stroke-linejoin:round;stroke-miterlimit:4;stroke-dasharray:none;stroke-opacity:1;paint-order:stroke fill markers"
   d="M 53.386562,112.78353 119.14749,73.539105 32.880465,157.33126 147.43176,73.892659 28.637825,191.27238 186,76 v 0 L 29,218 218.5,76 33,238 245,87.5 40,258.5 260.5,108.5 57,275.5 277,127 80,294.5 280.5,155 104,305 295.5,177 134,312 293.5,210 181.5,310.5 291,247 221.5,311.5"
   id="path860" /><path
   style="fill:none;stroke:#78c3a5;stroke-width:13.7037;stroke-linecap:round;stroke-linejoin:round;stroke-miterlimit:4;stroke-dasharray:none;stroke-opacity:1"
   d="M 218.06575,45.038798 238.69609,28.409862 194.44551,55.943018 241.68599,11.780927 175.01114,50.763513 215.67383,11.780927 168.00962,45.050139 198.0334,12.871349 178.89801,27.046835"
   id="path1429" /><path
   style="fill:none;stroke:#419272;stroke-width:16;stroke-linecap:round;stroke-linejoin:round;stroke-miterlimit:4;stroke-dasharray:none;stroke-opacity:1"
   d="M 178.89801,27.046835 210.71781,7.2478446 175.8928,41.896077 230.75,3.5"
   id="path864" /><g
   id="g1320"
   transform="matrix(1.1959615,0,0,1.090422,-1378.4908,-41.210938)"><path
     id="path75"
     style="fill:none;stroke:#000000;stroke-width:2.5;stroke-miterlimit:4;stroke-dasharray:none;stroke-opacity:1"
     d="m 1294.2894,80.022913 c 11.0498,2.152824 23.0332,0.07909 34.4883,-6.221205 10.5557,-5.588326 18.0068,-14.281279 21.7323,-23.595156 1.2419,-2.483701 -0.6209,-5.588327 -3.1046,-6.209252 -9.9348,-1.241851 -21.1114,0.620925 -31.6672,6.830177 v 0 c -11.0645,6.085477 -18.6786,15.128392 -22.8425,24.932924" /><path
     id="path79"
     style="fill:none;stroke:#000000;stroke-width:2.5;stroke-miterlimit:4;stroke-dasharray:none;stroke-opacity:1"
     d="m 1297.2336,108.98502 v -3.80274 c 0,-35.392735 -18.0068,-58.987891 -18.6277,-60.229742 v 0 c -1.8628,-2.483701 -5.5884,-3.104626 -8.0721,-1.24185 -2.4837,1.862775 -3.1046,5.588326 -1.2418,8.072027 0,0 16.144,21.732381 16.144,53.399565 v 0.006" /><g
     id="g1236"><path
       id="path83"
       style="fill:none;stroke:#000000;stroke-width:2.5;stroke-miterlimit:4;stroke-dasharray:none;stroke-opacity:1"
       d="m 1265.4453,102.45312 c -50.2949,0 -91.2754,50.29403 -91.2754,111.76563 0,61.47159 40.9805,111.76758 91.2754,111.76758 10.6764,0 20.9307,-2.24682 30.4649,-6.36719 -29.7011,-15.37921 -50.9551,-56.90877 -50.9551,-105.40039 0,-48.45424 21.2216,-89.95564 50.8867,-105.36328 -9.5148,-4.13961 -19.7455,-6.40235 -30.3965,-6.40235 z" /><path
       class="st0"
       d="m 1397.6358,214.45287 c 0,-61.4716 -34.1509,-111.76654 -76.3738,-111.76654 -42.2229,0 -76.3738,50.29494 -76.3738,111.76654 0,61.47159 34.1509,111.76653 76.3738,111.76653 42.2229,0 76.3738,-49.67401 76.3738,-111.76653 z"
       id="path85-5"
       style="fill:none;fill-opacity:1;stroke:#000000;stroke-width:2.5;stroke-miterlimit:4;stroke-dasharray:none;stroke-opacity:1" /></g></g><metadata
   id="metadata98"><rdf:RDF><cc:Work
       rdf:about=""><dc:format>image/svg+xml</dc:format><dc:type
         rdf:resource="http://purl.org/dc/dcmitype/StillImage" /><dc:title></dc:title></cc:Work></rdf:RDF></metadata><defs
   id="defs96"><inkscape:path-effect
   effect="spiro"
   id="path-effect1424"
   is_visible="true"
   lpeversion="1" /><inkscape:path-effect
   effect="spiro"
   id="path-effect1411"
   is_visible="true"
   lpeversion="1" /><inkscape:path-effect
   effect="spiro"
   id="path-effect1395"
   is_visible="true"
   lpeversion="1" /><inkscape:path-effect
   effect="spiro"
   id="path-effect1387"
   is_visible="true"
   lpeversion="1" /><inkscape:path-effect
   effect="spiro"
   id="path-effect1383"
   is_visible="true"
   lpeversion="1" /><inkscape:path-effect
   effect="spiro"
   id="path-effect1348"
   is_visible="true"
   lpeversion="1" /><inkscape:path-effect
   effect="spiro"
   id="path-effect1344"
   is_visible="true"
   lpeversion="1" />
	
	
	
	
	
	
	
	
	

		
		
		
		
		
		
		
	</defs><sodipodi:namedview
   pagecolor="#ffffff"
   bordercolor="#666666"
   borderopacity="1"
   objecttolerance="10"
   gridtolerance="10"
   guidetolerance="10"
   inkscape:pageopacity="0"
   inkscape:pageshadow="2"
   inkscape:window-width="1920"
   inkscape:window-height="1001"
   id="namedview94"
   showgrid="false"
   inkscape:snap-grids="true"
   inkscape:snap-to-guides="true"
   inkscape:snap-page="false"
   inkscape:zoom="1.7543661"
   inkscape:cx="133.16763"
   inkscape:cy="215.85489"
   inkscape:window-x="-9"
   inkscape:window-y="-9"
   inkscape:window-maximized="1"
   inkscape:current-layer="Слой_1"
   inkscape:document-rotation="0"
   fit-margin-top="0"
   fit-margin-left="0"
   fit-margin-right="0"
   fit-margin-bottom="0" />
<style
   type="text/css"
   id="style55">
	.st0{fill:#FFAA5F;}
	.st1{fill:#96D7A5;}
	.st2{fill:#78C3A5;}
	.st3{fill:#B67F5F;}
	.st4{fill:#A06E50;}
	.st5{fill:#FF8C5A;}
</style>

</svg>
